#!OML:ASF H:\Male1\Project 1\Capture day 1\Session 1\Male1.ASF
:FULLY-SPECIFIED
:DEGREES
560
root 22.1373 15.3991 0.616057 131.36 -86.1097 -129.318
lowerback 12.9448 2.13068 -0.30907
upperback 9.12803 2.24759 -1.72376
thorax 2.39989 0.936913 -1.86837
lowerneck -10.3651 3.65849 9.53771
upperneck 4.13364 4.2434 -9.18186
head 3.31975 1.86806 -4.10132
rclavicle -1.51076e-014 -1.43125e-014
rhumerus 7.74842 46.9264 -87.3669
rradius 127.794
rwrist 0.0947637
rhand -20.8401 32.1286
rfingers 7.12502
rthumb 5.52874 2.22071
lclavicle -1.51076e-014 -1.43125e-014
lhumerus 8.56086 -25.2615 81.6994
lradius 139.054
lwrist 5.15302
lhand -0.57772 -18.3904
lfingers 7.12502
lthumb 25.0369 9.98866
rfemur -11.6241 4.87743 21.0483
rtibia 26.8275
rfoot -22.8579 -27.7729
rtoes -24.8061
lfemur -14.3833 -9.35802 -12.0618
ltibia 32.6458
lfoot -20.1548 19.042
ltoes -11.0454
561
root 22.1849 15.3726 0.589983 124.063 -85.6008 -121.909
lowerback 13.4996 2.19059 0.185695
upperback 9.21059 2.35322 -1.57953
thorax 2.21192 1.00157 -2.02398
lowerneck -10.123 3.61208 9.41951
upperneck 3.61474 4.1769 -9.02801
head 3.11192 1.84542 -4.042
rclavicle -2.06736e-014 2.22639e-014
rhumerus 8.2476 47.1237 -87.0977
rradius 127.689
rwrist 0.173346
rhand -20.3767 32.4762
rfingers 7.12502
rthumb 5.97613 2.58046
lclavicle -2.06736e-014 2.22639e-014
lhumerus 8.28056 -24.738 81.4852
lradius 138.993
lwrist 5.16454
lhand -0.577506 -17.6165
lfingers 7.12502
lthumb 25.0371 10.7625
rfemur -12.4423 4.69087 21.9486
rtibia 27.6996
rfoot -22.8851 -27.7336
rtoes -24.8215
lfemur -15.2979 -8.82995 -10.9819
ltibia 33.4707
lfoot -20.205 18.3706
ltoes -10.9723
562
root 22.2142 15.3445 0.572082 121.845 -85.7408 -119.721
lowerback 13.8781 2.26536 0.0574855
upperback 9.41934 2.40924 -1.68544
thorax 2.23598 1.01727 -2.07944
lowerneck -10.0229 3.68008 9.55593
upperneck 3.17868 4.23315 -9.00542
head 2.97233 1.87828 -4.05564
rclavicle 7.95139e-016 3.81667e-014
rhumerus 8.71104 47.1692 -86.8508
rradius 127.614
rwrist 0.335329
rhand -20.258 32.6274
rfingers 7.12502
rthumb 6.09071 2.73499
lclavicle 7.95139e-016 3.81667e-014
lhumerus 7.88482 -24.0579 81.2891
lradius 138.921
lwrist 5.14362
lhand -1.28198 -16.7371
lfingers 7.12502
lthumb 24.3619 11.7344
rfemur -13.1415 3.923 21.9501
rtibia 28.8118
rfoot -23.0325 -27.2057
rtoes -24.7391
lfemur -15.8828 -8.43886 -10.8891
ltibia 34.2364
lfoot -20.2653 17.9191
ltoes -11.731
563
root 22.2213 15.3165 0.565034 124.52 -86.5012 -122.594
lowerback 14.0978 2.40276 -0.645751
upperback 9.78573 2.47516 -1.97908
thorax 2.49715 1.01134 -2.00332
lowerneck -9.92299 3.63302 9.70036
upperneck 2.66866 4.12834 -8.95931
head 2.79527 1.83115 -4.07424
rclavicle -3.53837e-014 -5.56597e-015
rhumerus 9.09767 47.2285 -86.5269
rradius 127.543
rwrist 0.339148
rhand -20.7154 32.8307
rfingers 7.12502
rthumb 5.64911 2.926
lclavicle -3.53837e-014 -5.56597e-015
lhumerus 7.44092 -23.3498 81.2608
lradius 138.808
lwrist 5.24277
lhand -1.22465 -16.5045
lfingers 7.12502
lthumb 24.4169 11.9596
rfemur -13.6591 2.50774 21.0866
rtibia 30.1268
rfoot -23.0723 -26.2082
rtoes -25.3261
lfemur -16.0814 -8.1201 -11.7639
ltibia 34.9789
lfoot -20.3654 17.7672
ltoes -13.8785
564
root 22.2338 15.2812 0.554882 127.293 -87.0838 -125.569
lowerback 14.4203 2.54209 -1.21198
upperback 10.1226 2.55287 -2.24609
thorax 2.67974 1.0142 -1.98304
lowerneck -10.0647 3.59534 9.31297
upperneck 2.44163 4.06161 -8.26598
head 2.71829 1.81533 -3.79977
rclavicle -1.39149e-014 8.74653e-015
rhumerus 9.25125 47.2313 -86.3827
rradius 127.522
rwrist 0.132
rhand -21.1992 33.179
rfingers 7.12502
rthumb 5.18199 3.26239
lclavicle -1.39149e-014 8.74653e-015
lhumerus 6.70031 -22.6375 81.3575
lradius 138.693
lwrist 5.39515
lhand -1.21244 -16.5946
lfingers 7.12502
lthumb 24.4286 11.868
rfemur -14.2946 1.18382 20.4347
rtibia 31.5861
rfoot -22.9292 -25.3514
rtoes -26.5909
lfemur -16.3294 -7.61446 -12.4231
ltibia 35.7627
lfoot -20.3711 17.6066
ltoes -16.3812
565
root 22.2552 15.2384 0.538845 125.821 -87.2244 -124.254
lowerback 14.8839 2.64533 -1.25992
upperback 10.3628 2.63682 -2.49869
thorax 2.7096 1.04786 -2.2464
lowerneck -9.8148 3.4917 9.22888
upperneck 1.85233 3.89207 -7.6369
head 2.46953 1.75495 -3.60765
rclavicle -1.98785e-014 2.78299e-014
rhumerus 9.16019 47.0123 -86.6286
rradius 127.575
rwrist -0.032654
rhand -21.3418 33.3777
rfingers 7.12502
rthumb 5.04431 3.4577
lclavicle -1.98785e-014 2.78299e-014
lhumerus 5.72091 -21.8528 81.3793
lradius 138.557
lwrist 5.75565
lhand -1.11816 -16.992
lfingers 7.12502
lthumb 24.519 11.4583
rfemur -15.0705 0.344912 20.388
rtibia 33.1343
rfoot -22.9923 -24.8105
rtoes -27.397
lfemur -16.8143 -6.97738 -12.4281
ltibia 36.6948
lfoot -20.4592 17.172
ltoes -17.5256
566
root 22.2712 15.1912 0.525451 122.658 -87.1055 -121.232
lowerback 15.2945 2.73963 -1.00904
upperback 10.5801 2.74721 -2.72895
thorax 2.76018 1.1117 -2.65694
lowerneck -9.59849 3.37964 9.18982
upperneck 1.29242 3.7081 -6.96293
head 2.23513 1.68473 -3.40997
rclavicle -2.8625e-014 -4.6118e-014
rhumerus 8.96079 46.567 -86.9926
rradius 127.656
rwrist 0.00817698
rhand -21.3805 33.1697
rfingers 7.12502
rthumb 5.007 3.24889
lclavicle -2.8625e-014 -4.6118e-014
lhumerus 4.58472 -20.9342 81.4442
lradius 138.315
lwrist 6.5074
lhand -0.583357 -17.4034
lfingers 7.12502
lthumb 25.0315 10.9765
rfemur -15.8486 -0.394034 20.6133
rtibia 34.7195
rfoot -23.3051 -24.2082
rtoes -27.746
lfemur -17.4297 -6.26595 -12.145
ltibia 37.8843
lfoot -20.8122 16.7076
ltoes -18.5232
567
root 22.2886 15.1367 0.51181 123.389 -87.0702 -122.126
lowerback 15.7697 2.88596 -1.12573
upperback 10.7569 2.87908 -2.91084
thorax 2.71495 1.16492 -2.81797
lowerneck -9.37671 3.27706 9.07356
upperneck 0.693509 3.54898 -5.99119
head 2.21499 1.64232 -3.44559
rclavicle 1.51076e-014 -5.00937e-014
rhumerus 8.60229 46.1115 -87.3004
rradius 127.791
rwrist -0.0571122
rhand -21.3377 32.6413
rfingers 7.12502
rthumb 5.04824 2.72141
lclavicle 1.51076e-014 -5.00937e-014
lhumerus 3.08742 -19.8669 81.7664
lradius 137.896
lwrist 7.02789
lhand -0.612321 -17.5582
lfingers 7.12502
lthumb 25.0037 10.8256
rfemur -16.664 -1.08753 20.6463
rtibia 36.3261
rfoot -23.5542 -23.5484
rtoes -28.2533
lfemur -18.1245 -5.52871 -12.0494
ltibia 39.302
lfoot -21.3023 16.2836
ltoes -19.4229
568
root 22.3131 15.0758 0.494815 125.436 -86.8278 -124.315
lowerback 16.3629 3.06016 -1.37279
upperback 10.8605 3.026 -2.96257
thorax 2.51574 1.21481 -2.77826
lowerneck -9.18092 3.17634 8.72387
upperneck 0.302897 3.42572 -5.17652
head 2.00119 1.59576 -3.09819
rclavicle -5.56597e-015 2.46493e-014
rhumerus 8.20699 45.8146 -87.4318
rradius 127.98
rwrist -0.34467
rhand -21.2878 32.473
rfingers 7.12502
rthumb 5.09651 2.55431
lclavicle -5.56597e-015 2.46493e-014
lhumerus 1.19352 -18.621 82.2644
lradius 137.421
lwrist 6.96793
lhand -1.28855 -17.2464
lfingers 7.12502
lthumb 24.3556 11.226
rfemur -17.6236 -1.42375 20.8676
rtibia 37.981
rfoot -23.6969 -23.0819
rtoes -28.7189
lfemur -18.8786 -4.54461 -11.7707
ltibia 40.8499
lfoot -21.7673 15.8228
ltoes -20.4904
